<svg xmlns="http://www.w3.org/2000/svg" xmlns:xlink="http://www.w3.org/1999/xlink" viewBox="0 0 473.62 473.62"><defs><style>.cls-1{mask:url(#mask);}.cls-2{fill:#118ab2;}.cls-3{filter:url(#luminosity-noclip);}</style><filter id="luminosity-noclip" x="-59.25" y="-47.91" width="585.3" height="544.41" filterUnits="userSpaceOnUse" color-interpolation-filters="sRGB"><feFlood flood-color="#fff" result="bg"/><feBlend in="SourceGraphic" in2="bg"/></filter><mask id="mask" x="-59.25" y="-47.91" width="585.3" height="544.41" maskUnits="userSpaceOnUse"><g class="cls-3"><path d="M-49.1-19.36q28.89,2.74,57.89,4,28.85,1.26,57.73,1t58-1.92q28.83-1.69,57.53-4.86,29.76-3.28,59.32-8.07c2.38-.38,4.75-.77,7.13-1.17,2.09-.36,4.35-2.38,5.37-4.14a9.18,9.18,0,0,0,.91-6.93,9.08,9.08,0,0,0-4.13-5.38,10.28,10.28,0,0,0-6.94-.91q-18.51,3.12-37.11,5.62l2.39-.32q-50.07,6.74-100.62,9t-101,0q-28.28-1.28-56.45-4c-2.16-.21-4.88,1.15-6.36,2.64a9.15,9.15,0,0,0-2.64,6.36A9.09,9.09,0,0,0-55.46-22a10.19,10.19,0,0,0,6.36,2.64Z"/><path d="M47.05,279.93c11.84-15.1,21.19-31.64,29.28-49,7.69-16.51,14.38-33.46,22-50C106,164,114.78,147.49,126,132.64a135.72,135.72,0,0,1,20.65-20.92A123.63,123.63,0,0,1,169.76,98.3c15.29-6.21,31.48-9.75,47.79-12.07,27.94-3.58,56.18-4.09,84-8.37,25.66-3.94,51.93-11.28,73.8-25.7a112.37,112.37,0,0,0,33.37-33.41c4.37-6.85,1.64-17.4-5.56-21.21A15.84,15.84,0,0,0,382,3.1c-1,1.63-2.14,3.21-3.27,4.77a95.05,95.05,0,0,1-14.52,14.4,122.8,122.8,0,0,1-22.77,13C324.9,42,307.37,46,289.72,48.48c-21.89,2.8-44,3.49-65.92,6-25.37,2.87-50.26,7.62-73.41,18.78-23,11.06-41.19,29-55.59,49.81-13.58,19.6-23.19,41.5-32.54,63.32-10.75,25.11-21.47,50.69-38,72.67A138.38,138.38,0,0,1,2.75,280.71a108.59,108.59,0,0,1-20.23,12,87.31,87.31,0,0,1-17,4.78,81.86,81.86,0,0,1-9.26.53c-8.11,0-15.87,7.15-15.5,15.5s6.81,15.47,15.5,15.5C-7.61,329.12,25.34,307.62,47.05,279.93Z"/><path d="M-26.47,396.31c3.94,2.08,7.57,2.19,11.94,1.56,31.44-4.49,59.41-22.3,82-43.86,23.06-22,41-48.51,58.47-74.93,9.52-14.36,19.06-28.71,29.52-42.41C166.62,222.48,178.88,209.18,193,198A189.43,189.43,0,0,1,231.31,176c31-12.69,64.07-18.88,96.79-25.13,34.38-6.56,68.65-13.42,101-27.22a190.76,190.76,0,0,0,49.77-30.88c6.16-5.31,5.85-16.54,0-21.92-6.57-6-15.35-5.66-21.92,0-1.71,1.47-3.46,2.87-5.22,4.27A183.84,183.84,0,0,1,415,96.22c-23.23,9.57-47.78,15.4-72.35,20.36C317,121.76,291.18,126,265.8,132.41c-25.6,6.44-51.08,15.25-73.79,28.9-26.4,15.88-47.18,38.17-65.51,62.62C109,247.28,94.14,272.48,76.93,296.05c-1.65,2.26-3.34,4.49-5,6.71C59.94,318,46.7,332.3,31.47,344.31a146.17,146.17,0,0,1-28,16.6A114.61,114.61,0,0,1-22.77,368c-3.57.51-7.54,4.17-9.26,7.12a15.84,15.84,0,0,0-1.57,11.95C-32.38,390.8-30.06,394.42-26.47,396.31Z"/><path d="M178.69,312.64c9.81-9,19.72-18,29.86-26.62q7.59-6.47,15.34-12.72,3.39-2.71,6.82-5.39l0,0,.8-.63,1.5-1.14c1.34-1,2.69-2,4-3a391.52,391.52,0,0,1,71.48-42.76c3-1.37,6-2.68,9.06-4,43.85-18.15,90.3-28.86,136.8-37.74,13.49-2.57,27-5,40.52-7.42,3.62-.64,7.47-4.06,9.26-7.12a15.82,15.82,0,0,0,1.57-11.94c-1.22-3.75-3.54-7.37-7.13-9.27a17.53,17.53,0,0,0-11.94-1.56c-42.63,7.63-85.38,15.33-127,27.54-40.79,12-80.35,28.52-116,51.85-31.84,20.85-60.78,45.84-88.67,71.63-27.19,25.15-53.54,51.22-81.55,75.47q-10.45,9-21.23,17.69c-1.72,1.37-3.44,2.73-5.18,4.08l-.31.25-3,2.28q-5.4,4.08-10.91,8a376.51,376.51,0,0,1-46.76,28.67q-6.06,3.11-12.24,5.94c-3.33,1.53-6.19,5.87-7.13,9.26a15.83,15.83,0,0,0,1.57,11.95c2.13,3.31,5.31,6.22,9.26,7.12,4.29,1,8,.27,11.94-1.56,23.94-11,46.34-25,67.44-40.76,22.12-16.49,43-34.52,63.25-53.2C139.85,349.4,159,330.77,178.69,312.64Z"/><path d="M525.42,309.18c-2.6-8-10.67-13.07-19.07-10.82C481.13,305.11,457.2,316.19,434,328c-22.82,11.66-45.23,24.09-68.36,35.16Q347.23,372,328.4,380,288,397,246.14,409.87q-32.31,9.92-65.35,17.25C192,415,203,402.66,214.48,390.87a364.59,364.59,0,0,1,36.15-32.34,373.61,373.61,0,0,1,61.78-38.15c5.81-2.85,11.71-5.52,17.65-8.07a381,381,0,0,1,72.65-22c6.67-1.31,13.38-2.41,20.11-3.36a362.71,362.71,0,0,1,80.87-1.4c3.73.36,8.41-2,11-4.54a15.72,15.72,0,0,0,4.54-11c-.17-4-1.49-8.17-4.54-11a17.53,17.53,0,0,0-11-4.54c-30.13-2.9-60.29-1.66-90.23,2.64a379.08,379.08,0,0,0-83.69,22A393.61,393.61,0,0,0,249.85,321,405.74,405.74,0,0,0,183,379c-18.51,19.81-36.14,40.66-56.81,58.3q-5.94.92-11.9,1.73-15.75,2.07-31.57,3.56c-4.2.39-7.89,1.47-11,4.54a15.76,15.76,0,0,0-4.54,11,17.2,17.2,0,0,0,2.6,8.68c-6.83,2.76-11.16,11.4-8.89,18.44A15.87,15.87,0,0,0,80,496.07c22-4.9,41.66-15.9,59.29-29.59q13.24-2.12,26.43-4.62,39.66-7.62,78.46-19,39.4-11.56,77.61-26.81,40.25-16,78.94-35.61c24.51-12.45,48.41-26.13,73.46-37.5,2.5-1.13,5-2.21,7.53-3.29a266.16,266.16,0,0,1,32.92-11.38C522.42,326.15,528,317.11,525.42,309.18Z"/></g></mask></defs><title>icone bleu</title><g id="Calque_2" data-name="Calque 2"><g id="Calque_1-2" data-name="Calque 1"><g class="cls-1"><circle class="cls-2" cx="236.81" cy="236.81" r="236.81"/></g></g></g></svg>